<mxfile host="app.diagrams.net" modified="2024-02-27T23:26:06.449Z" agent="Mozilla/5.0 (X11; Ubuntu; Linux x86_64; rv:123.0) Gecko/20100101 Firefox/123.0" version="23.1.7" etag="D3WSUzZ9GM5a6Z6ndDin" type="github">
  <diagram name="PÃ¡gina-1" id="LZVmN9QDRB-EdNu51iKC">
    <mxGraphModel>
      <root>
        <mxCell id="0" />
        <mxCell id="1" parent="0" />
      </root>
    </mxGraphModel>
  </diagram>
</mxfile>
